<?xml version="1.0" encoding="utf-8" standalone="no"?>
<!DOCTYPE svg PUBLIC "-//W3C//DTD SVG 1.1//EN"
  "http://www.w3.org/Graphics/SVG/1.1/DTD/svg11.dtd">
<svg height="288pt" version="1.1" viewBox="0 0 432 288" width="432pt" xmlns="http://www.w3.org/2000/svg" xmlns:xlink="http://www.w3.org/1999/xlink">
 <metadata>
  <rdf:RDF xmlns:cc="http://creativecommons.org/ns#" xmlns:dc="http://purl.org/dc/elements/1.1/" xmlns:rdf="http://www.w3.org/1999/02/22-rdf-syntax-ns#">
   <cc:Work>
    <dc:type rdf:resource="http://purl.org/dc/dcmitype/StillImage"/>
    <dc:date>2021-10-13T17:53:33.647137</dc:date>
    <dc:format>image/svg+xml</dc:format>
    <dc:creator>
     <cc:Agent>
      <dc:title>Matplotlib v3.4.3, https://matplotlib.org/</dc:title>
     </cc:Agent>
    </dc:creator>
   </cc:Work>
  </rdf:RDF>
 </metadata>
 <defs>
  <style type="text/css">*{stroke-linecap:butt;stroke-linejoin:round;}</style>
 </defs>
 <g id="figure_1">
  <g id="patch_1">
   <path d="M 0 288 
L 432 288 
L 432 0 
L 0 0 
z
" style="fill:none;"/>
  </g>
  <g id="axes_1">
   <g id="patch_2">
    <path d="M 54 252 
L 388.8 252 
L 388.8 34.56 
L 54 34.56 
z
" style="fill:#ffffff;"/>
   </g>
   <g id="patch_3">
    <path clip-path="url(#p22eba56ca3)" d="M 94.23702 233.13124 
Q 221.403209 233.13124 347.451365 233.13124 
" style="fill:none;stroke:#800080;stroke-linecap:round;"/>
    <path clip-path="url(#p22eba56ca3)" d="M 343.451365 231.13124 
L 347.451365 233.13124 
L 343.451365 235.13124 
L 343.451365 231.13124 
z
" style="fill:#800080;stroke:#800080;stroke-linecap:round;"/>
   </g>
   <g id="patch_4">
    <path clip-path="url(#p22eba56ca3)" d="M 93.315564 228.68776 
Q 186.814154 188.205217 279.286751 148.166903 
" style="fill:none;stroke:#ff0000;stroke-linecap:round;"/>
    <path clip-path="url(#p22eba56ca3)" d="M 274.821387 147.920873 
L 279.286751 148.166903 
L 276.410709 151.591576 
L 274.821387 147.920873 
z
" style="fill:#ff0000;stroke:#ff0000;stroke-linecap:round;"/>
   </g>
   <g id="patch_5">
    <path clip-path="url(#p22eba56ca3)" d="M 283.752883 134.420462 
Q 255.987316 98.35508 228.903781 63.175607 
" style="fill:none;stroke:#0000ff;stroke-linecap:round;"/>
    <path clip-path="url(#p22eba56ca3)" d="M 229.759132 67.565183 
L 228.903781 63.175607 
L 232.928652 65.125072 
L 229.759132 67.565183 
z
" style="fill:#0000ff;stroke:#0000ff;stroke-linecap:round;"/>
   </g>
   <g id="patch_6">
    <path clip-path="url(#p22eba56ca3)" d="M 352.926436 224.271701 
Q 325.16087 188.20632 298.077335 153.026847 
" style="fill:none;stroke:#ffc0cb;stroke-linecap:round;"/>
    <path clip-path="url(#p22eba56ca3)" d="M 298.932686 157.416423 
L 298.077335 153.026847 
L 302.102206 154.976312 
L 298.932686 157.416423 
z
" style="fill:#ffc0cb;stroke:#ffc0cb;stroke-linecap:round;"/>
   </g>
   <g id="text_1">
    <g id="patch_7">
     <path clip-path="url(#p22eba56ca3)" d="M 198.967969 241.021083 
L 243.832031 241.021083 
Q 246.832031 241.021083 246.832031 238.021083 
L 246.832031 228.241396 
Q 246.832031 225.241396 243.832031 225.241396 
L 198.967969 225.241396 
Q 195.967969 225.241396 195.967969 228.241396 
L 195.967969 238.021083 
Q 195.967969 241.021083 198.967969 241.021083 
z
" style="fill:#ffffff;stroke:#ffffff;stroke-linejoin:miter;"/>
    </g>
    <g clip-path="url(#p22eba56ca3)">
     <!-- rate_S2V -->
     <g transform="translate(198.967969 235.663271)scale(0.1 -0.1)">
      <defs>
       <path d="M 2631 2963 
Q 2534 3019 2420 3045 
Q 2306 3072 2169 3072 
Q 1681 3072 1420 2755 
Q 1159 2438 1159 1844 
L 1159 0 
L 581 0 
L 581 3500 
L 1159 3500 
L 1159 2956 
Q 1341 3275 1631 3429 
Q 1922 3584 2338 3584 
Q 2397 3584 2469 3576 
Q 2541 3569 2628 3553 
L 2631 2963 
z
" id="DejaVuSans-72" transform="scale(0.015625)"/>
       <path d="M 2194 1759 
Q 1497 1759 1228 1600 
Q 959 1441 959 1056 
Q 959 750 1161 570 
Q 1363 391 1709 391 
Q 2188 391 2477 730 
Q 2766 1069 2766 1631 
L 2766 1759 
L 2194 1759 
z
M 3341 1997 
L 3341 0 
L 2766 0 
L 2766 531 
Q 2569 213 2275 61 
Q 1981 -91 1556 -91 
Q 1019 -91 701 211 
Q 384 513 384 1019 
Q 384 1609 779 1909 
Q 1175 2209 1959 2209 
L 2766 2209 
L 2766 2266 
Q 2766 2663 2505 2880 
Q 2244 3097 1772 3097 
Q 1472 3097 1187 3025 
Q 903 2953 641 2809 
L 641 3341 
Q 956 3463 1253 3523 
Q 1550 3584 1831 3584 
Q 2591 3584 2966 3190 
Q 3341 2797 3341 1997 
z
" id="DejaVuSans-61" transform="scale(0.015625)"/>
       <path d="M 1172 4494 
L 1172 3500 
L 2356 3500 
L 2356 3053 
L 1172 3053 
L 1172 1153 
Q 1172 725 1289 603 
Q 1406 481 1766 481 
L 2356 481 
L 2356 0 
L 1766 0 
Q 1100 0 847 248 
Q 594 497 594 1153 
L 594 3053 
L 172 3053 
L 172 3500 
L 594 3500 
L 594 4494 
L 1172 4494 
z
" id="DejaVuSans-74" transform="scale(0.015625)"/>
       <path d="M 3597 1894 
L 3597 1613 
L 953 1613 
Q 991 1019 1311 708 
Q 1631 397 2203 397 
Q 2534 397 2845 478 
Q 3156 559 3463 722 
L 3463 178 
Q 3153 47 2828 -22 
Q 2503 -91 2169 -91 
Q 1331 -91 842 396 
Q 353 884 353 1716 
Q 353 2575 817 3079 
Q 1281 3584 2069 3584 
Q 2775 3584 3186 3129 
Q 3597 2675 3597 1894 
z
M 3022 2063 
Q 3016 2534 2758 2815 
Q 2500 3097 2075 3097 
Q 1594 3097 1305 2825 
Q 1016 2553 972 2059 
L 3022 2063 
z
" id="DejaVuSans-65" transform="scale(0.015625)"/>
       <path d="M 3263 -1063 
L 3263 -1509 
L -63 -1509 
L -63 -1063 
L 3263 -1063 
z
" id="DejaVuSans-5f" transform="scale(0.015625)"/>
       <path d="M 3425 4513 
L 3425 3897 
Q 3066 4069 2747 4153 
Q 2428 4238 2131 4238 
Q 1616 4238 1336 4038 
Q 1056 3838 1056 3469 
Q 1056 3159 1242 3001 
Q 1428 2844 1947 2747 
L 2328 2669 
Q 3034 2534 3370 2195 
Q 3706 1856 3706 1288 
Q 3706 609 3251 259 
Q 2797 -91 1919 -91 
Q 1588 -91 1214 -16 
Q 841 59 441 206 
L 441 856 
Q 825 641 1194 531 
Q 1563 422 1919 422 
Q 2459 422 2753 634 
Q 3047 847 3047 1241 
Q 3047 1584 2836 1778 
Q 2625 1972 2144 2069 
L 1759 2144 
Q 1053 2284 737 2584 
Q 422 2884 422 3419 
Q 422 4038 858 4394 
Q 1294 4750 2059 4750 
Q 2388 4750 2728 4690 
Q 3069 4631 3425 4513 
z
" id="DejaVuSans-53" transform="scale(0.015625)"/>
       <path d="M 1228 531 
L 3431 531 
L 3431 0 
L 469 0 
L 469 531 
Q 828 903 1448 1529 
Q 2069 2156 2228 2338 
Q 2531 2678 2651 2914 
Q 2772 3150 2772 3378 
Q 2772 3750 2511 3984 
Q 2250 4219 1831 4219 
Q 1534 4219 1204 4116 
Q 875 4013 500 3803 
L 500 4441 
Q 881 4594 1212 4672 
Q 1544 4750 1819 4750 
Q 2544 4750 2975 4387 
Q 3406 4025 3406 3419 
Q 3406 3131 3298 2873 
Q 3191 2616 2906 2266 
Q 2828 2175 2409 1742 
Q 1991 1309 1228 531 
z
" id="DejaVuSans-32" transform="scale(0.015625)"/>
       <path d="M 1831 0 
L 50 4666 
L 709 4666 
L 2188 738 
L 3669 4666 
L 4325 4666 
L 2547 0 
L 1831 0 
z
" id="DejaVuSans-56" transform="scale(0.015625)"/>
      </defs>
      <use xlink:href="#DejaVuSans-72"/>
      <use x="41.113281" xlink:href="#DejaVuSans-61"/>
      <use x="102.392578" xlink:href="#DejaVuSans-74"/>
      <use x="141.601562" xlink:href="#DejaVuSans-65"/>
      <use x="203.125" xlink:href="#DejaVuSans-5f"/>
      <use x="253.125" xlink:href="#DejaVuSans-53"/>
      <use x="316.601562" xlink:href="#DejaVuSans-32"/>
      <use x="380.224609" xlink:href="#DejaVuSans-56"/>
     </g>
    </g>
   </g>
   <g id="text_2">
    <g id="patch_8">
     <path clip-path="url(#p22eba56ca3)" d="M 171.147937 203.585935 
L 208.74826 187.305939 
Q 211.501287 186.113947 210.309295 183.36092 
L 206.423527 174.38634 
Q 205.231536 171.633313 202.478509 172.825305 
L 164.878186 189.105301 
Q 162.125159 190.297293 163.317151 193.050319 
L 167.202919 202.0249 
Q 168.39491 204.777927 171.147937 203.585935 
z
" style="fill:#ffffff;stroke:#ffffff;stroke-linejoin:miter;"/>
    </g>
    <g clip-path="url(#p22eba56ca3)">
     <!-- rate_S2I -->
     <g transform="translate(169.019115 198.669201)rotate(-23.411401)scale(0.1 -0.1)">
      <defs>
       <path d="M 628 4666 
L 1259 4666 
L 1259 0 
L 628 0 
L 628 4666 
z
" id="DejaVuSans-49" transform="scale(0.015625)"/>
      </defs>
      <use xlink:href="#DejaVuSans-72"/>
      <use x="41.113281" xlink:href="#DejaVuSans-61"/>
      <use x="102.392578" xlink:href="#DejaVuSans-74"/>
      <use x="141.601562" xlink:href="#DejaVuSans-65"/>
      <use x="203.125" xlink:href="#DejaVuSans-5f"/>
      <use x="253.125" xlink:href="#DejaVuSans-53"/>
      <use x="316.601562" xlink:href="#DejaVuSans-32"/>
      <use x="380.224609" xlink:href="#DejaVuSans-49"/>
     </g>
    </g>
   </g>
   <g id="text_3">
    <g id="patch_9">
     <path clip-path="url(#p22eba56ca3)" d="M 237.054547 86.696422 
L 262.415496 119.638385 
Q 264.245579 122.015526 266.62272 120.185442 
L 274.371949 114.219562 
Q 276.749089 112.389479 274.919006 110.012339 
L 249.558057 77.070375 
Q 247.727974 74.693235 245.350834 76.523318 
L 237.601604 82.489198 
Q 235.224464 84.319281 237.054547 86.696422 
z
" style="fill:#ffffff;stroke:#ffffff;stroke-linejoin:miter;"/>
    </g>
    <g clip-path="url(#p22eba56ca3)">
     <!-- rate_I2R -->
     <g transform="translate(241.299971 83.428008)rotate(-307.591507)scale(0.1 -0.1)">
      <defs>
       <path d="M 2841 2188 
Q 3044 2119 3236 1894 
Q 3428 1669 3622 1275 
L 4263 0 
L 3584 0 
L 2988 1197 
Q 2756 1666 2539 1819 
Q 2322 1972 1947 1972 
L 1259 1972 
L 1259 0 
L 628 0 
L 628 4666 
L 2053 4666 
Q 2853 4666 3247 4331 
Q 3641 3997 3641 3322 
Q 3641 2881 3436 2590 
Q 3231 2300 2841 2188 
z
M 1259 4147 
L 1259 2491 
L 2053 2491 
Q 2509 2491 2742 2702 
Q 2975 2913 2975 3322 
Q 2975 3731 2742 3939 
Q 2509 4147 2053 4147 
L 1259 4147 
z
" id="DejaVuSans-52" transform="scale(0.015625)"/>
      </defs>
      <use xlink:href="#DejaVuSans-72"/>
      <use x="41.113281" xlink:href="#DejaVuSans-61"/>
      <use x="102.392578" xlink:href="#DejaVuSans-74"/>
      <use x="141.601562" xlink:href="#DejaVuSans-65"/>
      <use x="203.125" xlink:href="#DejaVuSans-5f"/>
      <use x="253.125" xlink:href="#DejaVuSans-49"/>
      <use x="282.617188" xlink:href="#DejaVuSans-32"/>
      <use x="346.240234" xlink:href="#DejaVuSans-52"/>
     </g>
    </g>
   </g>
   <g id="text_4">
    <g id="patch_10">
     <path clip-path="url(#p22eba56ca3)" d="M 306.260985 176.590376 
L 331.556166 209.446911 
Q 333.386249 211.824051 335.763389 209.993968 
L 343.512619 204.028088 
Q 345.889759 202.198004 344.059676 199.820864 
L 318.764495 166.964329 
Q 316.934412 164.587189 314.557272 166.417272 
L 306.808043 172.383152 
Q 304.430902 174.213235 306.260985 176.590376 
z
" style="fill:#ffffff;stroke:#ffffff;stroke-linejoin:miter;"/>
    </g>
    <g clip-path="url(#p22eba56ca3)">
     <!-- rate_V2I -->
     <g transform="translate(310.506409 173.321961)rotate(-307.591507)scale(0.1 -0.1)">
      <use xlink:href="#DejaVuSans-72"/>
      <use x="41.113281" xlink:href="#DejaVuSans-61"/>
      <use x="102.392578" xlink:href="#DejaVuSans-74"/>
      <use x="141.601562" xlink:href="#DejaVuSans-65"/>
      <use x="203.125" xlink:href="#DejaVuSans-5f"/>
      <use x="253.125" xlink:href="#DejaVuSans-56"/>
      <use x="321.533203" xlink:href="#DejaVuSans-32"/>
      <use x="385.15625" xlink:href="#DejaVuSans-49"/>
     </g>
    </g>
   </g>
   <g id="matplotlib.axis_1">
    <g id="xtick_1"/>
    <g id="xtick_2"/>
    <g id="xtick_3"/>
    <g id="xtick_4"/>
    <g id="xtick_5"/>
    <g id="xtick_6"/>
    <g id="xtick_7"/>
    <g id="xtick_8"/>
   </g>
   <g id="matplotlib.axis_2">
    <g id="ytick_1"/>
    <g id="ytick_2"/>
    <g id="ytick_3"/>
    <g id="ytick_4"/>
    <g id="ytick_5"/>
    <g id="ytick_6"/>
   </g>
   <g id="PathCollection_1">
    <defs>
     <path d="M 0 11.18034 
C 2.965061 11.18034 5.80908 10.002309 7.905694 7.905694 
C 10.002309 5.80908 11.18034 2.965061 11.18034 0 
C 11.18034 -2.965061 10.002309 -5.80908 7.905694 -7.905694 
C 5.80908 -10.002309 2.965061 -11.18034 0 -11.18034 
C -2.965061 -11.18034 -5.80908 -10.002309 -7.905694 -7.905694 
C -10.002309 -5.80908 -11.18034 -2.965061 -11.18034 0 
C -11.18034 2.965061 -10.002309 5.80908 -7.905694 7.905694 
C -5.80908 10.002309 -2.965061 11.18034 0 11.18034 
z
" id="m7ea4dd6e05" style="stroke:#94d67c;"/>
    </defs>
    <g clip-path="url(#p22eba56ca3)">
     <use style="fill:#94d67c;stroke:#94d67c;" x="83.052893" xlink:href="#m7ea4dd6e05" y="233.13124"/>
     <use style="fill:#94d67c;stroke:#94d67c;" x="290.573554" xlink:href="#m7ea4dd6e05" y="143.28"/>
     <use style="fill:#94d67c;stroke:#94d67c;" x="221.4" xlink:href="#m7ea4dd6e05" y="53.42876"/>
     <use style="fill:#94d67c;stroke:#94d67c;" x="359.747107" xlink:href="#m7ea4dd6e05" y="233.13124"/>
    </g>
   </g>
   <g id="patch_11">
    <path d="M 54 252 
L 54 34.56 
" style="fill:none;stroke:#000000;stroke-linecap:square;stroke-linejoin:miter;stroke-width:0.8;"/>
   </g>
   <g id="patch_12">
    <path d="M 388.8 252 
L 388.8 34.56 
" style="fill:none;stroke:#000000;stroke-linecap:square;stroke-linejoin:miter;stroke-width:0.8;"/>
   </g>
   <g id="patch_13">
    <path d="M 54 252 
L 388.8 252 
" style="fill:none;stroke:#000000;stroke-linecap:square;stroke-linejoin:miter;stroke-width:0.8;"/>
   </g>
   <g id="patch_14">
    <path d="M 54 34.56 
L 388.8 34.56 
" style="fill:none;stroke:#000000;stroke-linecap:square;stroke-linejoin:miter;stroke-width:0.8;"/>
   </g>
   <g id="text_5">
    <g clip-path="url(#p22eba56ca3)">
     <!-- S -->
     <g transform="translate(79.24383 236.44249)scale(0.12 -0.12)">
      <use xlink:href="#DejaVuSans-53"/>
     </g>
    </g>
   </g>
   <g id="text_6">
    <g clip-path="url(#p22eba56ca3)">
     <!-- I -->
     <g transform="translate(288.803554 146.59125)scale(0.12 -0.12)">
      <use xlink:href="#DejaVuSans-49"/>
     </g>
    </g>
   </g>
   <g id="text_7">
    <g clip-path="url(#p22eba56ca3)">
     <!-- R -->
     <g transform="translate(217.230938 56.74001)scale(0.12 -0.12)">
      <use xlink:href="#DejaVuSans-52"/>
     </g>
    </g>
   </g>
   <g id="text_8">
    <g clip-path="url(#p22eba56ca3)">
     <!-- V -->
     <g transform="translate(355.642732 236.44249)scale(0.12 -0.12)">
      <use xlink:href="#DejaVuSans-56"/>
     </g>
    </g>
   </g>
  </g>
 </g>
 <defs>
  <clipPath id="p22eba56ca3">
   <rect height="217.44" width="334.8" x="54" y="34.56"/>
  </clipPath>
 </defs>
</svg>
