<?xml version="1.0" encoding="utf-8" standalone="no"?>
<!DOCTYPE svg PUBLIC "-//W3C//DTD SVG 1.1//EN"
  "http://www.w3.org/Graphics/SVG/1.1/DTD/svg11.dtd">
<svg height="345.6pt" version="1.1" viewBox="0 0 460.8 345.6" width="460.8pt" xmlns="http://www.w3.org/2000/svg" xmlns:xlink="http://www.w3.org/1999/xlink">
 <metadata>
  <rdf:RDF xmlns:cc="http://creativecommons.org/ns#" xmlns:dc="http://purl.org/dc/elements/1.1/" xmlns:rdf="http://www.w3.org/1999/02/22-rdf-syntax-ns#">
   <cc:Work>
    <dc:type rdf:resource="http://purl.org/dc/dcmitype/StillImage"/>
    <dc:date>2021-10-13T17:59:11.467540</dc:date>
    <dc:format>image/svg+xml</dc:format>
    <dc:creator>
     <cc:Agent>
      <dc:title>Matplotlib v3.4.3, https://matplotlib.org/</dc:title>
     </cc:Agent>
    </dc:creator>
   </cc:Work>
  </rdf:RDF>
 </metadata>
 <defs>
  <style type="text/css">*{stroke-linecap:butt;stroke-linejoin:round;}</style>
 </defs>
 <g id="figure_1">
  <g id="patch_1">
   <path d="M 0 345.6 
L 460.8 345.6 
L 460.8 0 
L 0 0 
z
" style="fill:#ffffff;"/>
  </g>
  <g id="axes_1">
   <g id="patch_2">
    <path d="M 57.6 307.584 
L 414.72 307.584 
L 414.72 41.472 
L 57.6 41.472 
z
" style="fill:#ffffff;"/>
   </g>
   <g id="patch_3">
    <path clip-path="url(#pabcab1ea80)" d="M 99.771909 284.491636 
Q 236.159522 284.491636 371.429101 284.491636 
" style="fill:none;stroke:#800080;stroke-linecap:round;"/>
    <path clip-path="url(#pabcab1ea80)" d="M 367.429101 282.491636 
L 371.429101 284.491636 
L 367.429101 286.491636 
L 367.429101 282.491636 
z
" style="fill:#800080;stroke:#800080;stroke-linecap:round;"/>
   </g>
   <g id="patch_4">
    <path clip-path="url(#pabcab1ea80)" d="M 98.60438 279.516627 
Q 199.268244 229.509418 298.930819 179.999622 
" style="fill:none;stroke:#ff0000;stroke-linecap:round;"/>
    <path clip-path="url(#pabcab1ea80)" d="M 294.458698 179.988066 
L 298.930819 179.999622 
L 296.238302 183.570386 
L 294.458698 179.988066 
z
" style="fill:#ff0000;stroke:#ff0000;stroke-linecap:round;"/>
   </g>
   <g id="patch_5">
    <path clip-path="url(#pabcab1ea80)" d="M 303.71455 165.242435 
Q 273.051324 119.544337 243.011051 74.774639 
" style="fill:none;stroke:#0000ff;stroke-linecap:round;"/>
    <path clip-path="url(#pabcab1ea80)" d="M 243.579021 79.210562 
L 243.011051 74.774639 
L 246.900571 76.981816 
L 243.579021 79.210562 
z
" style="fill:#0000ff;stroke:#0000ff;stroke-linecap:round;"/>
   </g>
   <g id="patch_6">
    <path clip-path="url(#pabcab1ea80)" d="M 377.499674 275.206072 
Q 346.836448 229.507973 316.796175 184.738276 
" style="fill:none;stroke:#ffc0cb;stroke-linecap:round;"/>
    <path clip-path="url(#pabcab1ea80)" d="M 317.364145 189.174198 
L 316.796175 184.738276 
L 320.685695 186.945453 
L 317.364145 189.174198 
z
" style="fill:#ffc0cb;stroke:#ffc0cb;stroke-linecap:round;"/>
   </g>
   <g id="text_1">
    <g id="patch_7">
     <path clip-path="url(#pabcab1ea80)" d="M 213.727969 292.38148 
L 258.592031 292.38148 
Q 261.592031 292.38148 261.592031 289.38148 
L 261.592031 279.601793 
Q 261.592031 276.601793 258.592031 276.601793 
L 213.727969 276.601793 
Q 210.727969 276.601793 210.727969 279.601793 
L 210.727969 289.38148 
Q 210.727969 292.38148 213.727969 292.38148 
z
" style="fill:#ffffff;stroke:#ffffff;stroke-linejoin:miter;"/>
    </g>
    <g clip-path="url(#pabcab1ea80)">
     <!-- rate_S2V -->
     <g transform="translate(213.727969 287.023668)scale(0.1 -0.1)">
      <defs>
       <path d="M 2631 2963 
Q 2534 3019 2420 3045 
Q 2306 3072 2169 3072 
Q 1681 3072 1420 2755 
Q 1159 2438 1159 1844 
L 1159 0 
L 581 0 
L 581 3500 
L 1159 3500 
L 1159 2956 
Q 1341 3275 1631 3429 
Q 1922 3584 2338 3584 
Q 2397 3584 2469 3576 
Q 2541 3569 2628 3553 
L 2631 2963 
z
" id="DejaVuSans-72" transform="scale(0.015625)"/>
       <path d="M 2194 1759 
Q 1497 1759 1228 1600 
Q 959 1441 959 1056 
Q 959 750 1161 570 
Q 1363 391 1709 391 
Q 2188 391 2477 730 
Q 2766 1069 2766 1631 
L 2766 1759 
L 2194 1759 
z
M 3341 1997 
L 3341 0 
L 2766 0 
L 2766 531 
Q 2569 213 2275 61 
Q 1981 -91 1556 -91 
Q 1019 -91 701 211 
Q 384 513 384 1019 
Q 384 1609 779 1909 
Q 1175 2209 1959 2209 
L 2766 2209 
L 2766 2266 
Q 2766 2663 2505 2880 
Q 2244 3097 1772 3097 
Q 1472 3097 1187 3025 
Q 903 2953 641 2809 
L 641 3341 
Q 956 3463 1253 3523 
Q 1550 3584 1831 3584 
Q 2591 3584 2966 3190 
Q 3341 2797 3341 1997 
z
" id="DejaVuSans-61" transform="scale(0.015625)"/>
       <path d="M 1172 4494 
L 1172 3500 
L 2356 3500 
L 2356 3053 
L 1172 3053 
L 1172 1153 
Q 1172 725 1289 603 
Q 1406 481 1766 481 
L 2356 481 
L 2356 0 
L 1766 0 
Q 1100 0 847 248 
Q 594 497 594 1153 
L 594 3053 
L 172 3053 
L 172 3500 
L 594 3500 
L 594 4494 
L 1172 4494 
z
" id="DejaVuSans-74" transform="scale(0.015625)"/>
       <path d="M 3597 1894 
L 3597 1613 
L 953 1613 
Q 991 1019 1311 708 
Q 1631 397 2203 397 
Q 2534 397 2845 478 
Q 3156 559 3463 722 
L 3463 178 
Q 3153 47 2828 -22 
Q 2503 -91 2169 -91 
Q 1331 -91 842 396 
Q 353 884 353 1716 
Q 353 2575 817 3079 
Q 1281 3584 2069 3584 
Q 2775 3584 3186 3129 
Q 3597 2675 3597 1894 
z
M 3022 2063 
Q 3016 2534 2758 2815 
Q 2500 3097 2075 3097 
Q 1594 3097 1305 2825 
Q 1016 2553 972 2059 
L 3022 2063 
z
" id="DejaVuSans-65" transform="scale(0.015625)"/>
       <path d="M 3263 -1063 
L 3263 -1509 
L -63 -1509 
L -63 -1063 
L 3263 -1063 
z
" id="DejaVuSans-5f" transform="scale(0.015625)"/>
       <path d="M 3425 4513 
L 3425 3897 
Q 3066 4069 2747 4153 
Q 2428 4238 2131 4238 
Q 1616 4238 1336 4038 
Q 1056 3838 1056 3469 
Q 1056 3159 1242 3001 
Q 1428 2844 1947 2747 
L 2328 2669 
Q 3034 2534 3370 2195 
Q 3706 1856 3706 1288 
Q 3706 609 3251 259 
Q 2797 -91 1919 -91 
Q 1588 -91 1214 -16 
Q 841 59 441 206 
L 441 856 
Q 825 641 1194 531 
Q 1563 422 1919 422 
Q 2459 422 2753 634 
Q 3047 847 3047 1241 
Q 3047 1584 2836 1778 
Q 2625 1972 2144 2069 
L 1759 2144 
Q 1053 2284 737 2584 
Q 422 2884 422 3419 
Q 422 4038 858 4394 
Q 1294 4750 2059 4750 
Q 2388 4750 2728 4690 
Q 3069 4631 3425 4513 
z
" id="DejaVuSans-53" transform="scale(0.015625)"/>
       <path d="M 1228 531 
L 3431 531 
L 3431 0 
L 469 0 
L 469 531 
Q 828 903 1448 1529 
Q 2069 2156 2228 2338 
Q 2531 2678 2651 2914 
Q 2772 3150 2772 3378 
Q 2772 3750 2511 3984 
Q 2250 4219 1831 4219 
Q 1534 4219 1204 4116 
Q 875 4013 500 3803 
L 500 4441 
Q 881 4594 1212 4672 
Q 1544 4750 1819 4750 
Q 2544 4750 2975 4387 
Q 3406 4025 3406 3419 
Q 3406 3131 3298 2873 
Q 3191 2616 2906 2266 
Q 2828 2175 2409 1742 
Q 1991 1309 1228 531 
z
" id="DejaVuSans-32" transform="scale(0.015625)"/>
       <path d="M 1831 0 
L 50 4666 
L 709 4666 
L 2188 738 
L 3669 4666 
L 4325 4666 
L 2547 0 
L 1831 0 
z
" id="DejaVuSans-56" transform="scale(0.015625)"/>
      </defs>
      <use xlink:href="#DejaVuSans-72"/>
      <use x="41.113281" xlink:href="#DejaVuSans-61"/>
      <use x="102.392578" xlink:href="#DejaVuSans-74"/>
      <use x="141.601562" xlink:href="#DejaVuSans-65"/>
      <use x="203.125" xlink:href="#DejaVuSans-5f"/>
      <use x="253.125" xlink:href="#DejaVuSans-53"/>
      <use x="316.601562" xlink:href="#DejaVuSans-32"/>
      <use x="380.224609" xlink:href="#DejaVuSans-56"/>
     </g>
    </g>
   </g>
   <g id="text_2">
    <g id="patch_8">
     <path clip-path="url(#pabcab1ea80)" d="M 184.430146 245.690363 
L 221.125128 227.461243 
Q 223.811868 226.12654 222.477165 223.4398 
L 218.126173 214.68131 
Q 216.79147 211.994571 214.104731 213.329273 
L 177.409748 231.558394 
Q 174.723009 232.893097 176.057711 235.579836 
L 180.408703 244.338326 
Q 181.743406 247.025066 184.430146 245.690363 
z
" style="fill:#ffffff;stroke:#ffffff;stroke-linejoin:miter;"/>
    </g>
    <g clip-path="url(#pabcab1ea80)">
     <!-- rate_S2I -->
     <g transform="translate(182.04645 240.892014)rotate(-26.417)scale(0.1 -0.1)">
      <defs>
       <path d="M 628 4666 
L 1259 4666 
L 1259 0 
L 628 0 
L 628 4666 
z
" id="DejaVuSans-49" transform="scale(0.015625)"/>
      </defs>
      <use xlink:href="#DejaVuSans-72"/>
      <use x="41.113281" xlink:href="#DejaVuSans-61"/>
      <use x="102.392578" xlink:href="#DejaVuSans-74"/>
      <use x="141.601562" xlink:href="#DejaVuSans-65"/>
      <use x="203.125" xlink:href="#DejaVuSans-5f"/>
      <use x="253.125" xlink:href="#DejaVuSans-53"/>
      <use x="316.601562" xlink:href="#DejaVuSans-32"/>
      <use x="380.224609" xlink:href="#DejaVuSans-49"/>
     </g>
    </g>
   </g>
   <g id="text_3">
    <g id="patch_9">
     <path clip-path="url(#pabcab1ea80)" d="M 254.918858 106.681265 
L 278.083011 141.203326 
Q 279.754571 143.694488 282.245733 142.022929 
L 290.366663 136.57382 
Q 292.857825 134.902261 291.186266 132.411099 
L 268.022113 97.889038 
Q 266.350553 95.397875 263.859391 97.069435 
L 255.738461 102.518543 
Q 253.247299 104.190102 254.918858 106.681265 
z
" style="fill:#ffffff;stroke:#ffffff;stroke-linejoin:miter;"/>
    </g>
    <g clip-path="url(#pabcab1ea80)">
     <!-- rate_I2R -->
     <g transform="translate(259.367918 103.695965)rotate(-303.86144)scale(0.1 -0.1)">
      <defs>
       <path d="M 2841 2188 
Q 3044 2119 3236 1894 
Q 3428 1669 3622 1275 
L 4263 0 
L 3584 0 
L 2988 1197 
Q 2756 1666 2539 1819 
Q 2322 1972 1947 1972 
L 1259 1972 
L 1259 0 
L 628 0 
L 628 4666 
L 2053 4666 
Q 2853 4666 3247 4331 
Q 3641 3997 3641 3322 
Q 3641 2881 3436 2590 
Q 3231 2300 2841 2188 
z
M 1259 4147 
L 1259 2491 
L 2053 2491 
Q 2509 2491 2742 2702 
Q 2975 2913 2975 3322 
Q 2975 3731 2742 3939 
Q 2509 4147 2053 4147 
L 1259 4147 
z
" id="DejaVuSans-52" transform="scale(0.015625)"/>
      </defs>
      <use xlink:href="#DejaVuSans-72"/>
      <use x="41.113281" xlink:href="#DejaVuSans-61"/>
      <use x="102.392578" xlink:href="#DejaVuSans-74"/>
      <use x="141.601562" xlink:href="#DejaVuSans-65"/>
      <use x="203.125" xlink:href="#DejaVuSans-5f"/>
      <use x="253.125" xlink:href="#DejaVuSans-49"/>
      <use x="282.617188" xlink:href="#DejaVuSans-32"/>
      <use x="346.240234" xlink:href="#DejaVuSans-52"/>
     </g>
    </g>
   </g>
   <g id="text_4">
    <g id="patch_10">
     <path clip-path="url(#pabcab1ea80)" d="M 328.734018 216.689664 
L 351.8381 251.122199 
Q 353.509659 253.613362 356.000821 251.941802 
L 364.121751 246.492694 
Q 366.612913 244.821134 364.941354 242.329972 
L 341.837272 207.897437 
Q 340.165713 205.406275 337.674551 207.077834 
L 329.553621 212.526943 
Q 327.062459 214.198502 328.734018 216.689664 
z
" style="fill:#ffffff;stroke:#ffffff;stroke-linejoin:miter;"/>
    </g>
    <g clip-path="url(#pabcab1ea80)">
     <!-- rate_V2I -->
     <g transform="translate(333.183078 213.704364)rotate(-303.86144)scale(0.1 -0.1)">
      <use xlink:href="#DejaVuSans-72"/>
      <use x="41.113281" xlink:href="#DejaVuSans-61"/>
      <use x="102.392578" xlink:href="#DejaVuSans-74"/>
      <use x="141.601562" xlink:href="#DejaVuSans-65"/>
      <use x="203.125" xlink:href="#DejaVuSans-5f"/>
      <use x="253.125" xlink:href="#DejaVuSans-56"/>
      <use x="321.533203" xlink:href="#DejaVuSans-32"/>
      <use x="385.15625" xlink:href="#DejaVuSans-49"/>
     </g>
    </g>
   </g>
   <g id="matplotlib.axis_1">
    <g id="xtick_1"/>
    <g id="xtick_2"/>
    <g id="xtick_3"/>
    <g id="xtick_4"/>
    <g id="xtick_5"/>
    <g id="xtick_6"/>
    <g id="xtick_7"/>
    <g id="xtick_8"/>
   </g>
   <g id="matplotlib.axis_2">
    <g id="ytick_1"/>
    <g id="ytick_2"/>
    <g id="ytick_3"/>
    <g id="ytick_4"/>
    <g id="ytick_5"/>
    <g id="ytick_6"/>
   </g>
   <g id="PathCollection_1">
    <defs>
     <path d="M 0 11.18034 
C 2.965061 11.18034 5.80908 10.002309 7.905694 7.905694 
C 10.002309 5.80908 11.18034 2.965061 11.18034 0 
C 11.18034 -2.965061 10.002309 -5.80908 7.905694 -7.905694 
C 5.80908 -10.002309 2.965061 -11.18034 0 -11.18034 
C -2.965061 -11.18034 -5.80908 -10.002309 -7.905694 -7.905694 
C -10.002309 -5.80908 -11.18034 -2.965061 -11.18034 0 
C -11.18034 2.965061 -10.002309 5.80908 -7.905694 7.905694 
C -5.80908 10.002309 -2.965061 11.18034 0 11.18034 
z
" id="m0987d8fa80" style="stroke:#94d67c;"/>
    </defs>
    <g clip-path="url(#pabcab1ea80)">
     <use style="fill:#94d67c;stroke:#94d67c;" x="88.589752" xlink:href="#m0987d8fa80" y="284.491636"/>
     <use style="fill:#94d67c;stroke:#94d67c;" x="309.945124" xlink:href="#m0987d8fa80" y="174.528"/>
     <use style="fill:#94d67c;stroke:#94d67c;" x="236.16" xlink:href="#m0987d8fa80" y="64.564364"/>
     <use style="fill:#94d67c;stroke:#94d67c;" x="383.730248" xlink:href="#m0987d8fa80" y="284.491636"/>
    </g>
   </g>
   <g id="patch_11">
    <path d="M 57.6 307.584 
L 57.6 41.472 
" style="fill:none;stroke:#000000;stroke-linecap:square;stroke-linejoin:miter;stroke-width:0.8;"/>
   </g>
   <g id="patch_12">
    <path d="M 414.72 307.584 
L 414.72 41.472 
" style="fill:none;stroke:#000000;stroke-linecap:square;stroke-linejoin:miter;stroke-width:0.8;"/>
   </g>
   <g id="patch_13">
    <path d="M 57.6 307.584 
L 414.72 307.584 
" style="fill:none;stroke:#000000;stroke-linecap:square;stroke-linejoin:miter;stroke-width:0.8;"/>
   </g>
   <g id="patch_14">
    <path d="M 57.6 41.472 
L 414.72 41.472 
" style="fill:none;stroke:#000000;stroke-linecap:square;stroke-linejoin:miter;stroke-width:0.8;"/>
   </g>
   <g id="text_5">
    <g clip-path="url(#pabcab1ea80)">
     <!-- S -->
     <g transform="translate(84.78069 287.802886)scale(0.12 -0.12)">
      <use xlink:href="#DejaVuSans-53"/>
     </g>
    </g>
   </g>
   <g id="text_6">
    <g clip-path="url(#pabcab1ea80)">
     <!-- I -->
     <g transform="translate(308.175124 177.83925)scale(0.12 -0.12)">
      <use xlink:href="#DejaVuSans-49"/>
     </g>
    </g>
   </g>
   <g id="text_7">
    <g clip-path="url(#pabcab1ea80)">
     <!-- R -->
     <g transform="translate(231.990938 67.875614)scale(0.12 -0.12)">
      <use xlink:href="#DejaVuSans-52"/>
     </g>
    </g>
   </g>
   <g id="text_8">
    <g clip-path="url(#pabcab1ea80)">
     <!-- V -->
     <g transform="translate(379.625873 287.802886)scale(0.12 -0.12)">
      <use xlink:href="#DejaVuSans-56"/>
     </g>
    </g>
   </g>
  </g>
 </g>
 <defs>
  <clipPath id="pabcab1ea80">
   <rect height="266.112" width="357.12" x="57.6" y="41.472"/>
  </clipPath>
 </defs>
</svg>
